# xmcd CD database file
#
# Track frame offsets:
#	150
#	42487
#	89002
#	126477
#
# Disc length: 2259 seconds
#
# Revision: 2
# Processed by: cddbd v1.5.2PL0 Copyright (c) Steve Scherf et al.
# Submitted via: CDex 1.70beta3
#
DISCID=3808d104
DTITLE=1588 Sonny Clark - Cool Struttin'
DYEAR=1900
DGENRE=Jazz
TTITLE0=Cool Struttin'
TTITLE1=Blue Minor
TTITLE2=Sippin' At Bells
TTITLE3=Deep Night
EXTD=
EXTT0=
EXTT1=
EXTT2=
EXTT3=
PLAYORDER=
